<?xml version="1.0" encoding="UTF-8"?>
<svg version="1.1" xmlns="http://www.w3.org/2000/svg" width="1749" height="302">
<path d="M0 0 C1.73873131 -0.02825615 1.73873131 -0.02825615 3.5125885 -0.05708313 C7.32015556 -0.10732133 11.12478141 -0.09890888 14.93261719 -0.08520508 C16.92307648 -0.09493159 18.91353707 -0.10468206 20.90398002 -0.11731797 C27.15684097 -0.15637688 33.40873233 -0.15392086 39.66162109 -0.125 C46.07587566 -0.09604307 52.48702024 -0.13638895 58.90083241 -0.21136302 C64.43942531 -0.27365313 69.97704756 -0.2924963 75.51596904 -0.27757245 C78.81028358 -0.26908801 82.10212128 -0.28080925 85.39621735 -0.32478905 C109.8211956 -0.60663003 109.8211956 -0.60663003 119.06103134 7.95444202 C120.39705383 9.30156943 121.69039337 10.6906672 122.97949219 12.08276367 C124.26004828 13.18176019 125.55483731 14.26482445 126.87402344 15.31713867 C127.83695313 16.14729492 128.79988281 16.97745117 129.79199219 17.83276367 C133.27205395 20.81335027 136.77153504 23.74245223 140.41699219 26.52026367 C145.06425162 30.07001535 149.4514892 33.90265095 153.87084961 37.72851562 C157.64547804 40.98154401 161.47486417 44.09031314 165.52636719 46.99682617 C167.99084545 48.83855992 168.9107172 49.63500081 169.3888855 52.74813843 C169.96108922 62.15045729 170.12670136 71.51731221 170.11230469 80.93432617 C170.11298128 82.52550267 170.11395424 84.11667907 170.11520386 85.70785522 C170.1166667 89.02407832 170.11457398 92.34027424 170.10986328 95.65649414 C170.1041942 99.84513292 170.10753918 104.03370785 170.11328888 108.2223444 C170.16788338 154.58588802 170.16788338 154.58588802 167.22949219 169.39526367 C167.05393799 170.30985352 166.87838379 171.22444336 166.69750977 172.16674805 C162.28273333 194.16141543 151.70497252 216.71619661 135.97949219 233.08276367 C135.31949219 233.08276367 134.65949219 233.08276367 133.97949219 233.08276367 C133.31949219 234.40276367 132.65949219 235.72276367 131.97949219 237.08276367 C131.31949219 237.08276367 130.65949219 237.08276367 129.97949219 237.08276367 C129.97949219 237.74276367 129.97949219 238.40276367 129.97949219 239.08276367 C128.68652344 240.42260742 128.68652344 240.42260742 126.79199219 242.02026367 C126.0559375 242.64416992 125.31988281 243.26807617 124.56152344 243.91088867 C123.70945313 244.62760742 122.85738281 245.34432617 121.97949219 246.08276367 C121.03460938 246.90260742 120.08972656 247.72245117 119.11621094 248.56713867 C106.20695069 259.73695517 92.56576365 269.57561532 78.17480469 278.74682617 C74.57035001 281.0443064 71.01097418 283.39708247 67.47167969 285.79370117 C66.12348145 286.6977771 66.12348145 286.6977771 64.74804688 287.62011719 C63.02548524 288.77681701 61.30958836 289.94352401 59.6015625 291.12158203 C58.82135742 291.64115479 58.04115234 292.16072754 57.23730469 292.69604492 C56.55812988 293.15793213 55.87895508 293.61981934 55.17919922 294.09570312 C52.23581744 295.41646811 50.18012236 295.41587017 46.97949219 295.08276367 C44.36499023 293.95629883 44.36499023 293.95629883 41.74121094 292.37182617 C40.76466553 291.79142578 39.78812012 291.21102539 38.78198242 290.61303711 C37.75403564 289.98429687 36.72608887 289.35555664 35.66699219 288.70776367 C34.06609741 287.74918457 34.06609741 287.74918457 32.43286133 286.77124023 C30.27825625 285.4810343 28.12643937 284.1861599 25.97753906 282.88647461 C22.66808487 280.8954121 19.33071948 278.95799124 15.98486328 277.02905273 C3.6710795 269.90537617 -8.0944738 262.21831166 -19.02050781 253.08276367 C-19.66117188 252.57616211 -20.30183594 252.06956055 -20.96191406 251.54760742 C-22.35375841 250.43994475 -23.69486883 249.26886171 -25.02050781 248.08276367 C-25.02050781 247.42276367 -25.02050781 246.76276367 -25.02050781 246.08276367 C-25.68050781 246.08276367 -26.34050781 246.08276367 -27.02050781 246.08276367 C-27.02050781 245.42276367 -27.02050781 244.76276367 -27.02050781 244.08276367 C-27.68050781 244.08276367 -28.34050781 244.08276367 -29.02050781 244.08276367 C-30.36035156 242.75463867 -30.36035156 242.75463867 -31.95800781 240.83276367 C-34.53526139 237.77327969 -37.19961619 234.85925417 -39.98681641 231.98999023 C-46.16305029 225.54615522 -50.77619359 218.65700723 -55.05664062 210.84204102 C-55.91713416 209.27144416 -56.80675557 207.71688675 -57.70019531 206.16479492 C-65.15385542 192.47400472 -68.78856256 176.40829089 -71.02050781 161.08276367 C-71.17495361 160.04418213 -71.17495361 160.04418213 -71.33251953 158.98461914 C-72.51446087 150.7409051 -73.1730836 142.54840327 -73.15332031 134.21948242 C-73.15181473 133.34235596 -73.15030914 132.46522949 -73.14875793 131.56152344 C-73.06033158 118.13144375 -72.47141401 104.70990375 -71.90356445 91.29321289 C-71.73647448 87.32750772 -71.58665365 83.36133249 -71.44035625 79.39481354 C-71.32352162 76.30945881 -71.19431309 73.22471186 -71.06168556 70.13999939 C-71.00087249 68.67620723 -70.9446622 67.21221587 -70.89328575 65.74806213 C-70.82080761 63.71523869 -70.72905743 61.6831301 -70.63647461 59.65112305 C-70.58984177 58.49978882 -70.54320892 57.34845459 -70.49516296 56.16223145 C-69.61930503 50.47984019 -66.54979813 47.37511349 -62.33300781 43.70776367 C-61.43839844 42.92401367 -60.54378906 42.14026367 -59.62207031 41.33276367 C-58.76355469 40.59026367 -57.90503906 39.84776367 -57.02050781 39.08276367 C-56.36824219 38.50526367 -55.71597656 37.92776367 -55.04394531 37.33276367 C-50.50067102 33.3114826 -45.86503116 29.39941396 -41.22705078 25.48828125 C-38.2805894 23.00191399 -35.34346398 20.50572002 -32.42285156 17.98901367 C-31.52300537 17.21400513 -31.52300537 17.21400513 -30.60498047 16.42333984 C-29.47446342 15.44842854 -28.34510847 14.47216691 -27.21728516 13.49414062 C-26.14987243 12.57407411 -25.07420806 11.6634858 -23.99013901 10.76310444 C-22.59478215 9.57269122 -21.23623366 8.33850652 -19.90579605 7.07595348 C-13.35742092 1.20423742 -8.67125291 -0.09273676 0 0 Z M-10.02050781 44.08276367 C-11.51778568 45.26088171 -13.02095676 46.43166141 -14.53613281 47.58666992 C-15.7850889 48.60109535 -17.03001376 49.62050772 -18.27050781 50.64526367 C-19.26546265 51.46087769 -19.26546265 51.46087769 -20.28051758 52.29296875 C-31.04920436 59.78687399 -31.04920436 59.78687399 -37.21669006 70.06910706 C-37.24999924 70.88387009 -37.28330841 71.69863312 -37.31762695 72.53808594 C-37.35759293 73.46408096 -37.3975589 74.39007599 -37.43873596 75.34413147 C-37.47732224 76.35229416 -37.51590851 77.36045685 -37.55566406 78.39916992 C-37.5986412 79.44362778 -37.64161835 80.48808563 -37.68589783 81.56419373 C-37.77629193 83.78766136 -37.86440336 86.01122276 -37.95043945 88.23486328 C-38.08045601 91.57961713 -38.21881223 94.92394406 -38.35839844 98.26831055 C-41.28030848 125.31428948 -41.28030848 125.31428948 -37.02050781 151.08276367 C-36.98028391 153.41575027 -36.97730534 155.74983033 -37.02050781 158.08276367 C-36.36050781 158.08276367 -35.70050781 158.08276367 -35.02050781 158.08276367 C-35.06175781 159.17588867 -35.10300781 160.26901367 -35.14550781 161.39526367 C-35.34125447 165.17168596 -35.34125447 165.17168596 -33.02050781 168.08276367 C-32.4194744 170.29666196 -31.88374972 172.52878946 -31.39550781 174.77026367 C-31.13511719 175.94975586 -30.87472656 177.12924805 -30.60644531 178.34448242 C-30.31640625 179.69993164 -30.31640625 179.69993164 -30.02050781 181.08276367 C-29.36050781 181.08276367 -28.70050781 181.08276367 -28.02050781 181.08276367 C-27.80394531 182.22745117 -27.80394531 182.22745117 -27.58300781 183.39526367 C-27.05724841 186.16449275 -27.05724841 186.16449275 -26.02050781 189.08276367 C-25.36050781 189.08276367 -24.70050781 189.08276367 -24.02050781 189.08276367 C-23.87613281 189.86651367 -23.73175781 190.65026367 -23.58300781 191.45776367 C-23.14251856 194.04697385 -23.14251856 194.04697385 -22.02050781 196.08276367 C-21.36050781 196.08276367 -20.70050781 196.08276367 -20.02050781 196.08276367 C-19.75238281 197.01088867 -19.48425781 197.93901367 -19.20800781 198.89526367 C-18.07382481 201.93964962 -17.32366623 202.9798799 -15.02050781 205.08276367 C-14.69050781 206.07276367 -14.36050781 207.06276367 -14.02050781 208.08276367 C-12.59107211 209.27950054 -11.15745925 210.47186182 -9.69628906 211.62963867 C-7.93110051 213.16029168 -6.50515982 214.78081136 -5.02050781 216.58276367 C-2.28868167 219.87954863 0.64557106 222.40113146 3.97949219 225.08276367 C5.31282552 226.41609701 6.64615885 227.74943034 7.97949219 229.08276367 C11.46400857 232.37692432 11.46400857 232.37692432 15.97949219 233.08276367 C16.30949219 234.07276367 16.63949219 235.06276367 16.97949219 236.08276367 C17.96949219 236.08276367 18.95949219 236.08276367 19.97949219 236.08276367 C20.30949219 237.07276367 20.63949219 238.06276367 20.97949219 239.08276367 C22.7306061 240.53554313 22.7306061 240.53554313 24.85449219 241.77026367 C25.55316406 242.20725586 26.25183594 242.64424805 26.97167969 243.09448242 C29.05511706 244.30357326 29.05511706 244.30357326 31.97949219 244.08276367 C31.97949219 244.74276367 31.97949219 245.40276367 31.97949219 246.08276367 C34.62688135 247.54339218 35.87397553 248.08276367 38.97949219 248.08276367 C38.97949219 248.74276367 38.97949219 249.40276367 38.97949219 250.08276367 C40.9701476 251.10123853 42.97197404 252.09794345 44.97949219 253.08276367 C45.80449219 253.55713867 46.62949219 254.03151367 47.47949219 254.52026367 C50.19746422 255.4292069 50.19746422 255.4292069 53.10449219 253.27026367 C54.05324219 252.54838867 55.00199219 251.82651367 55.97949219 251.08276367 C56.96949219 250.75276367 57.95949219 250.42276367 58.97949219 250.08276367 C58.97949219 249.42276367 58.97949219 248.76276367 58.97949219 248.08276367 C59.66011719 247.83526367 60.34074219 247.58776367 61.04199219 247.33276367 C64.54814302 245.84078459 67.69569587 244.01440856 70.97949219 242.08276367 C70.97949219 241.42276367 70.97949219 240.76276367 70.97949219 240.08276367 C71.51574219 240.00026367 72.05199219 239.91776367 72.60449219 239.83276367 C75.8528991 238.80695096 78.26701077 237.11712473 80.97949219 235.08276367 C80.97949219 234.42276367 80.97949219 233.76276367 80.97949219 233.08276367 C81.61886719 232.97963867 82.25824219 232.87651367 82.91699219 232.77026367 C83.93792969 232.42995117 83.93792969 232.42995117 84.97949219 232.08276367 C85.30949219 231.09276367 85.63949219 230.10276367 85.97949219 229.08276367 C86.87667969 228.86620117 86.87667969 228.86620117 87.79199219 228.64526367 C90.71519527 227.89358288 91.90838523 226.22068053 93.97949219 224.08276367 C94.96949219 223.75276367 95.95949219 223.42276367 96.97949219 223.08276367 C98.1975547 221.6342569 99.41177938 220.18194727 100.58886719 218.69995117 C102.78540325 216.14555249 105.36113322 214.19973475 107.97949219 212.08276367 C110.99948058 209.32163143 112.94420863 206.62238725 114.97949219 203.08276367 C115.81480469 202.03088867 115.81480469 202.03088867 116.66699219 200.95776367 C118.26622336 199.05460257 118.26622336 199.05460257 117.97949219 196.08276367 C118.63949219 196.08276367 119.29949219 196.08276367 119.97949219 196.08276367 C121.44012069 193.43537451 121.97949219 192.18828033 121.97949219 189.08276367 C122.63949219 189.08276367 123.29949219 189.08276367 123.97949219 189.08276367 C125.23614197 186.17676106 125.97949219 184.28671783 125.97949219 181.08276367 C126.63949219 181.08276367 127.29949219 181.08276367 127.97949219 181.08276367 C129.1723663 177.2059228 129.97949219 174.16654444 129.97949219 170.08276367 C130.63949219 170.08276367 131.29949219 170.08276367 131.97949219 170.08276367 C132.11226562 169.3840918 132.24503906 168.68541992 132.38183594 167.96557617 C132.5584375 167.05549805 132.73503906 166.14541992 132.91699219 165.20776367 C133.09101563 164.3028418 133.26503906 163.39791992 133.44433594 162.46557617 C133.97949219 160.08276367 133.97949219 160.08276367 134.97949219 158.08276367 C135.04858265 155.80709668 134.97697614 153.54981127 134.91699219 151.27416992 C134.97949219 149.08276367 134.97949219 149.08276367 135.97949219 146.08276367 C136.21835939 143.47291834 136.40525166 140.88577796 136.54199219 138.27026367 C136.58372559 137.47620117 136.62545898 136.68213867 136.66845703 135.86401367 C137.45881753 119.21805382 137.03443381 102.56406688 136.22949219 85.92651367 C136.06681798 82.56172618 135.96117169 79.23153438 136.04199219 75.86401367 C136.04199219 71.25262317 135.95674274 68.34094867 133.07714844 64.63354492 C130.49826831 62.23392345 127.82109175 60.1630145 124.97949219 58.08276367 C123.11837534 56.57044355 121.26416339 55.04958595 119.41699219 53.52026367 C118.04027344 52.40844727 118.04027344 52.40844727 116.63574219 51.27416992 C114.16125204 49.23271555 111.78471 47.12122414 109.41699219 44.95776367 C108.72160339 44.35242294 108.0262146 43.74708221 107.30975342 43.12339783 C105.86379212 41.85715438 104.44558316 40.55746788 103.07550049 39.20948792 C94.70446711 32.01387771 85.0298394 33.00952992 74.58886719 33.04760742 C72.59644537 33.03524907 70.60403303 33.02126884 68.6116333 33.00575256 C64.44565978 32.98197315 60.2807276 32.98483161 56.11474609 33.00537109 C50.81029044 33.02840967 45.50983896 32.97443989 40.20598984 32.89876461 C36.09273778 32.85063273 31.9804277 32.84952274 27.86695099 32.86142159 C25.91352644 32.86055595 23.96003877 32.84430159 22.00688934 32.81150627 C8.2031628 32.60979169 0.29157715 34.81848659 -10.02050781 44.08276367 Z " fill="#E1AA2C" transform="translate(82.0205078125,1.917236328125)"/>
<path d="M0 0 C1.32 0 2.64 0 4 0 C18.42737629 23.64590764 24.38269413 47.4148978 26 75 C30.79682762 63.99791452 33.42376998 52.68167065 36 41 C44.38311139 42.22194505 48.7013136 49.61314138 53.5625 56 C66.93936535 74.06376637 67.20522464 93.40580714 67 115 C66.34 115 65.68 115 65 115 C64.9175 115.78375 64.835 116.5675 64.75 117.375 C63.75634931 122.177645 61.91286482 126.49809489 60 131 C59.34 131 58.68 131 58 131 C57.855625 131.598125 57.71125 132.19625 57.5625 132.8125 C56.61634791 136.49198034 55.71071567 138.40223081 53 141 C52.67 141.66 52.34 142.32 52 143 C51.34 143 50.68 143 50 143 C49.67 143.99 49.34 144.98 49 146 C47.34467377 147.01866229 45.67739862 148.01810813 44 149 C43.34 149.99 42.68 150.98 42 152 C38.375 153.1875 38.375 153.1875 35 154 C35 154.66 35 155.32 35 156 C30.545 156.99 30.545 156.99 26 158 C26 158.66 26 159.32 26 160 C17.93609051 161.77357528 10.2435057 162.30805286 2 162.25 C0.90171875 162.25773438 -0.1965625 162.26546875 -1.328125 162.2734375 C-8.42463151 162.25662113 -15.06953695 161.52428521 -22 160 C-22 159.34 -22 158.68 -22 158 C-24.64 157.34 -27.28 156.68 -30 156 C-30 155.34 -30 154.68 -30 154 C-31.1446875 153.8453125 -31.1446875 153.8453125 -32.3125 153.6875 C-35.24342658 152.93772808 -36.01517162 152.16526733 -38 150 C-38.99 149.67 -39.98 149.34 -41 149 C-50.50802695 139.76823534 -57.25066996 129.05561759 -61.16796875 116.4765625 C-61.76716707 114.08446697 -61.76716707 114.08446697 -63 113 C-63.69562311 98.61839654 -63.93556747 82.9463926 -57 70 C-55.109375 70.24609375 -55.109375 70.24609375 -53 71 C-52.015625 72.72265625 -52.015625 72.72265625 -51.25 75.0625 C-46.71066527 87.4747434 -40.13500403 98.91797247 -33 110 C-33.19916016 109.12988281 -33.19916016 109.12988281 -33.40234375 108.2421875 C-33.57894531 107.46101563 -33.75554687 106.67984375 -33.9375 105.875 C-34.11152344 105.10929687 -34.28554687 104.34359375 -34.46484375 103.5546875 C-38.0622297 86.38176477 -38.28606987 64.55888021 -32 48 C-31.75330566 47.3404834 -31.50661133 46.6809668 -31.25244141 46.00146484 C-25.60125945 31.19876786 -16.87607146 19.36006123 -6.39306641 7.61425781 C-5.45036243 6.52187108 -4.54139475 5.39960133 -3.66552734 4.25292969 C-2.38671875 2.5859375 -2.38671875 2.5859375 0 0 Z " fill="#F18B26" transform="translate(129,52)"/>
<path d="M0 0 C9.57 0 19.14 0 29 0 C34.40215683 10.58568852 39.34116997 21.31054559 44.125 32.1875 C45.16448703 34.54271664 46.20493754 36.89750576 47.24554443 39.25222778 C47.91215092 40.76074399 48.57837973 42.26942714 49.24420166 43.77828979 C51.78794708 49.53789264 54.37380504 55.27746938 57 61 C66.46375428 40.72536364 75.76964415 20.3818577 85 0 C87.64 0 90.28 0 93 0 C97.76807794 10.1727734 102.47735581 20.37126272 107.14428711 30.59082031 C108.19629241 32.89425153 109.24945399 35.1971516 110.30273438 37.5 C111.93105491 41.06146351 113.55498852 44.6248964 115.17572021 48.18981934 C115.90661274 49.79491453 116.64171973 51.39808915 117.37744141 53.00097656 C120 58.77175824 120 58.77175824 120 61 C120.66 61 121.32 61 122 61 C122.1724675 60.44869919 122.344935 59.89739838 122.52262878 59.32939148 C124.27882762 53.87113926 126.36561298 48.70631071 128.80078125 43.51953125 C129.15963913 42.74421555 129.51849701 41.96889984 129.88822937 41.17008972 C131.02515508 38.71544188 132.16839449 36.26380845 133.3125 33.8125 C134.81131205 30.59110052 136.30704962 27.3682894 137.80078125 24.14453125 C138.16148712 23.36739777 138.52219299 22.59026428 138.89382935 21.7895813 C141.68762971 15.74385374 144.32895726 9.64418639 146.89526367 3.4987793 C148 1 148 1 149 0 C151.14558827 -0.08775605 153.29404421 -0.10695219 155.44140625 -0.09765625 C156.74658203 -0.09443359 158.05175781 -0.09121094 159.39648438 -0.08789062 C160.7851569 -0.07953401 162.17382877 -0.07106905 163.5625 -0.0625 C164.95507656 -0.05748666 166.34765481 -0.05292347 167.74023438 -0.04882812 C171.1601987 -0.03699434 174.58007844 -0.0205088 178 0 C177.35077593 4.39217831 175.7272842 8.13930684 173.859375 12.125 C173.54128876 12.81526779 173.22320251 13.50553558 172.89547729 14.21672058 C172.20990344 15.70311088 171.52194567 17.18840351 170.83184814 18.67269897 C169.35877263 21.84161891 167.89766808 25.01600721 166.43606567 28.19023132 C165.69025841 29.80988008 164.94389718 31.42927387 164.19699097 33.04841614 C160.95818809 40.07353657 157.77888349 47.12379738 154.625 54.1875 C153.58609918 56.51309307 152.54703096 58.83861136 151.5078125 61.1640625 C151.10526245 62.0650341 151.10526245 62.0650341 150.69458008 62.98420715 C148.26412248 68.41937495 145.81640889 73.84670411 143.3671875 79.2734375 C142.55385845 81.0765719 141.74054469 82.87971319 140.92724609 84.68286133 C139.72760996 87.34241955 138.52746956 90.00174306 137.32550049 92.6602478 C133.38688912 101.37235892 129.47070933 110.07527249 125.89257812 118.94311523 C125 121 125 121 124 122 C122.00041636 122.04080783 119.99954746 122.04254356 118 122 C112.58931646 111.47399208 107.69764383 100.77019017 102.9375 89.9375 C101.57318072 86.84175545 100.20693004 83.74686728 98.83984375 80.65234375 C98.51374115 79.91349945 98.18763855 79.17465515 97.85165405 78.41342163 C94.97394491 71.908112 92.00974411 65.4453887 89 59 C81.60865244 74.80099356 74.31486138 90.63884606 67.2277832 106.57885742 C66.71691162 107.72588135 66.20604004 108.87290527 65.6796875 110.0546875 C65.23351074 111.05999512 64.78733398 112.06530273 64.32763672 113.10107422 C62.95243145 116.10386704 61.49331853 119.0544032 60 122 C58.02 122 56.04 122 54 122 C47.81078687 109.95563854 42.20628062 97.70358145 36.75 85.3125 C35.88564684 83.35716675 35.02089246 81.40201082 34.15576172 79.44702148 C32.35400607 75.37483075 30.55397891 71.30188196 28.75488281 67.22851562 C26.00064067 60.9966604 23.23253989 54.77102534 20.4609375 48.546875 C20.0110144 47.53622482 19.56109131 46.52557465 19.09753418 45.48429871 C17.35152304 41.56248086 15.60539078 37.64071737 13.85827637 33.71939087 C10.0212057 25.10514636 6.18436433 16.49040266 2.4296875 7.83984375 C1.95515137 6.74921631 1.48061523 5.65858887 0.99169922 4.53491211 C0 2 0 2 0 0 Z " fill="#E4A925" transform="translate(1231,91)"/>
<path d="M0 0 C33.66 0 67.32 0 102 0 C105.16801879 12.67207517 102.04174584 27.55924725 96 39 C91.47701145 46.162238 86.15066585 52.20976839 80 58 C83.95045138 65.39197073 88.10926147 72.61174835 92.5 79.75 C93.72668638 81.75383042 94.95324491 83.75773911 96.1796875 85.76171875 C96.80584961 86.78313965 97.43201172 87.80456055 98.07714844 88.85693359 C100.0194898 92.03185775 101.95266878 95.21217881 103.8828125 98.39453125 C104.50994141 99.42803711 105.13707031 100.46154297 105.78320312 101.52636719 C106.98315304 103.50443945 108.1824068 105.48293425 109.38085938 107.46191406 C111.65279368 111.20164103 113.9158373 114.92311305 116.3984375 118.52734375 C118 121 118 121 118 123 C113.71369411 123.24873662 109.43128157 123.4292977 105.13989258 123.54931641 C103.68341898 123.59936705 102.22744204 123.66744172 100.77270508 123.75439453 C88.78367149 124.45262533 88.78367149 124.45262533 84.65722656 121.09204102 C82.80081927 118.48482808 81.39499855 115.87846645 80 113 C78.98800368 111.30950431 77.96461884 109.62577157 76.9296875 107.94921875 C75.90795688 106.19734994 74.88982988 104.4433753 73.875 102.6875 C67.44121193 91.67090882 60.76335205 80.81667929 54 70 C52.72125 70.165 51.4425 70.33 50.125 70.5 C42.10827334 71.15442667 34.0433936 71 26 71 C26 88.16 26 105.32 26 123 C17.42 123 8.84 123 0 123 C0 96.93 0 70.86 0 44 C22.375 43.6875 22.375 43.6875 29.37646484 43.61206055 C31.23797548 43.57973113 33.0994683 43.54635191 34.9609375 43.51171875 C35.90300049 43.50547485 36.84506348 43.49923096 37.81567383 43.49279785 C45.9641536 43.3185948 53.99074692 41.92229229 60.8125 37.1875 C61.49957031 36.72730469 62.18664063 36.26710937 62.89453125 35.79296875 C65.69598432 33.51012381 65.69598432 33.51012381 70 28 C46.9 27.67 23.8 27.34 0 27 C0 18.09 0 9.18 0 0 Z " fill="#E4A925" transform="translate(985,90)"/>
<path d="M0 0 C32.34 0 64.68 0 98 0 C98 8.91 98 17.82 98 27 C74.24 27 50.48 27 26 27 C26 35.25 26 43.5 26 52 C53.39 52 80.78 52 109 52 C109 60.91 109 69.82 109 79 C73.03 79 37.06 79 0 79 C0 52.93 0 26.86 0 0 Z " fill="#E4A925" transform="translate(1112,134)"/>
<path d="M0 0 C32.34 0 64.68 0 98 0 C98 8.91 98 17.82 98 27 C74.24 27 50.48 27 26 27 C26 35.25 26 43.5 26 52 C53.39 52 80.78 52 109 52 C109 60.91 109 69.82 109 79 C73.03 79 37.06 79 0 79 C0 52.93 0 26.86 0 0 Z " fill="#E4A925" transform="translate(431,134)"/>
<path d="M0 0 C6.80908671 -0.68712786 6.80908671 -0.68712786 9.74441528 1.00648499 C11.49910975 2.51683321 13.09569172 4.10557987 14.69140625 5.78320312 C15.30704941 6.39767807 15.92269257 7.01215302 16.55699158 7.64524841 C18.57838239 9.67219349 20.56999079 11.72594078 22.5625 13.78125 C23.96178661 15.19546427 25.36285521 16.6079174 26.765625 18.01867676 C30.44631142 21.72985421 34.10233957 25.46442496 37.75372314 29.20440674 C42.14328582 33.69034109 46.5629401 38.14660769 50.97755432 42.60786438 C57.67501658 49.382808 64.33317458 56.19428239 71 63 C71.33 42.21 71.66 21.42 72 0 C80.91 0 89.82 0 99 0 C99 40.59 99 81.18 99 123 C89.99856018 123 89.99856018 123 86.58325195 119.76062012 C85.80656662 119.04117722 85.02988129 118.32173431 84.22966003 117.58049011 C82.99642754 116.37952446 82.99642754 116.37952446 81.73828125 115.15429688 C80.84953812 114.31812332 79.96079498 113.48194977 79.04512024 112.62043762 C76.11049514 109.84351156 73.20884258 107.03541161 70.3125 104.21875 C69.30605755 103.24473053 68.29936248 102.27097203 67.29241943 101.29747009 C62.55288244 96.71034309 57.83292086 92.10414057 53.13572311 87.47366953 C47.75280654 82.16851102 42.3108719 76.93582131 36.80669689 71.75665045 C32.53246543 67.72616201 28.3238822 63.633803 24.15663624 59.49283075 C21.67680888 57.03158346 19.17931762 54.60233735 16.60830688 52.2361908 C6.65451337 43.03742785 -0.73073496 35.11999212 -1.29434395 21.21471548 C-1.38946729 14.1063201 -0.85407489 7.05352453 0 0 Z " fill="#E4A925" transform="translate(315,90)"/>
<path d="M0 0 C4.51591656 -0.3245407 9.02490938 -0.55852616 13.54980469 -0.71411133 C15.083234 -0.77899709 16.61587409 -0.86736482 18.14648438 -0.98071289 C30.78492689 -1.89229768 30.78492689 -1.89229768 36.03588867 2.59350586 C38.29728746 5.31836722 40.16335901 8.24988879 41.96459961 11.29342651 C43.4731521 13.77986143 45.23331609 16.05108469 47.00390625 18.35546875 C48.19151319 19.96510719 49.37774619 21.57576039 50.5625 23.1875 C51.17673828 24.01830078 51.79097656 24.84910156 52.42382812 25.70507812 C53.00712891 26.49720703 53.59042969 27.28933594 54.19140625 28.10546875 C54.70904541 28.80824951 55.22668457 29.51103027 55.76000977 30.23510742 C57 32 57 32 58 34 C58.66 34 59.32 34 60 34 C61.31746712 32.55342849 61.31746712 32.55342849 62.6171875 30.625 C63.39195435 29.52841064 63.39195435 29.52841064 64.18237305 28.40966797 C65.02022339 27.21688232 65.02022339 27.21688232 65.875 26 C66.47030518 25.19578613 67.06561035 24.39157227 67.67895508 23.56298828 C70.61146471 19.57458768 73.22704368 15.72994968 75.33203125 11.2421875 C77.80825002 6.41424668 80.00182333 2.4815791 85 0 C96.18231724 -1.97226506 107.74809462 -0.97484019 119 0 C115.33525282 5.59785335 111.55396495 11.05303636 107.5 16.375 C106.44983662 17.76510837 105.40038834 19.15575719 104.3515625 20.546875 C103.80661133 21.26939453 103.26166016 21.99191406 102.70019531 22.73632812 C93.96430798 34.36745209 85.40523298 46.12809259 77 58 C80.13575647 63.83469115 83.8582167 68.99192803 87.875 74.25 C89.2233816 76.03070099 90.57102017 77.81196481 91.91796875 79.59375 C92.59907715 80.49351562 93.28018555 81.39328125 93.98193359 82.3203125 C97.66723552 87.21383705 101.28557847 92.15644611 104.90820312 97.09643555 C107.75890972 100.9777885 110.62843334 104.8420524 113.54296875 108.67578125 C114.10411377 109.41538086 114.66525879 110.15498047 115.2434082 110.91699219 C116.3068066 112.31533801 117.37416809 113.71068159 118.44604492 115.10253906 C122 119.77927775 122 119.77927775 122 122 C117.44717822 122.24893457 112.8983805 122.42939301 108.34033203 122.54931641 C106.79373142 122.59933166 105.24759725 122.66737763 103.70263672 122.75439453 C90.94406586 123.45450978 90.94406586 123.45450978 86.38525391 120.04370117 C84.31077648 117.4689086 82.65351407 114.86048821 81 112 C79.90139181 110.49795172 78.78477154 109.00887059 77.6484375 107.53515625 C76.55519319 106.04580893 75.46410254 104.55487871 74.375 103.0625 C73.15370228 101.39709402 71.93234646 99.73173065 70.7109375 98.06640625 C70.09573242 97.22609863 69.48052734 96.38579102 68.84667969 95.52001953 C65.90608884 91.50722488 62.95255961 87.50399128 60 83.5 C58.83459673 81.91799724 57.66923223 80.33596594 56.50390625 78.75390625 C54.15987983 75.57249389 51.81329118 72.39299384 49.46484375 69.21484375 C43.72576358 61.44399909 38.01586072 53.65500166 32.375 45.8125 C28.32654888 40.18606613 24.23219437 34.59970456 20.0625 29.0625 C15.44584707 22.92591965 10.83292225 16.7868391 6.25 10.625 C5.31812866 9.38375366 5.31812866 9.38375366 4.36743164 8.11743164 C3.79758545 7.34906982 3.22773926 6.58070801 2.640625 5.7890625 C1.87540527 4.76353271 1.87540527 4.76353271 1.09472656 3.71728516 C0 2 0 2 0 0 Z " fill="#E4A925" transform="translate(548,91)"/>
<path d="M0 0 C8.58 0 17.16 0 26 0 C26 31.68 26 63.36 26 96 C49.43 96 72.86 96 97 96 C97 104.91 97 113.82 97 123 C64.99 123 32.98 123 0 123 C0 82.41 0 41.82 0 0 Z " fill="#E4A925" transform="translate(1643,90)"/>
<path d="M0 0 C8.58 0 17.16 0 26 0 C26 31.68 26 63.36 26 96 C49.43 96 72.86 96 97 96 C97 104.91 97 113.82 97 123 C64.99 123 32.98 123 0 123 C0 82.41 0 41.82 0 0 Z " fill="#E4A925" transform="translate(1529,90)"/>
<path d="M0 0 C32.34 0 64.68 0 98 0 C98 8.91 98 17.82 98 27 C74.24 27 50.48 27 26 27 C26 44.16 26 61.32 26 79 C17.42 79 8.84 79 0 79 C0 52.93 0 26.86 0 0 Z " fill="#E4A925" transform="translate(815,134)"/>
<path d="M0 0 C2.64 0 5.28 0 8 0 C8.35602295 0.66717041 8.7120459 1.33434082 9.07885742 2.02172852 C15.968424 14.91611483 22.93581753 27.74780471 30.17260742 40.45141602 C34.03825623 47.25390444 37.79232925 54.11027339 41.5 61 C45.73223682 68.85941488 50.03338223 76.67303035 54.4375 84.4375 C55.22386841 85.82424927 55.22386841 85.82424927 56.02612305 87.23901367 C57.10727729 89.14421741 58.18874456 91.04924355 59.27050781 92.95410156 C62.45886341 98.56928005 65.64062264 104.1879946 68.8125 109.8125 C69.42988037 110.89909912 70.04726074 111.98569824 70.68334961 113.10522461 C71.24803955 114.1081958 71.81272949 115.11116699 72.39453125 116.14453125 C73.15020386 117.48028198 73.15020386 117.48028198 73.92114258 118.84301758 C75 121 75 121 75 123 C63.78 123 52.56 123 41 123 C38.89625 119.08125 36.7925 115.1625 34.625 111.125 C29.29135633 101.2099957 23.89595169 91.33397699 18.40039062 81.5078125 C16.78893393 78.62202393 15.18313869 75.733127 13.578125 72.84375 C12.96469238 71.74095703 12.35125977 70.63816406 11.71923828 69.50195312 C10.44850113 67.20974507 9.18383978 64.91415817 7.92529297 62.61523438 C4.93499418 57.17223571 1.90758334 51.7862368 -1.37486267 46.51319885 C-2.85894727 44.12166175 -4.30755773 41.70954075 -5.75405884 39.2951355 C-6.78748896 37.60344231 -7.87120106 35.94279229 -8.95581055 34.28344727 C-10.82940435 31.13332293 -12.19868439 28.57962886 -13 25 C-11.82157611 20.42679271 -9.60783996 16.89919332 -7 13 C-6.27663702 11.67090503 -5.5675446 10.33377835 -4.8828125 8.984375 C-4.01269531 7.38335937 -4.01269531 7.38335937 -3.125 5.75 C-2.23167969 4.10257812 -2.23167969 4.10257812 -1.3203125 2.421875 C-0.88460938 1.62265625 -0.44890625 0.8234375 0 0 Z " fill="#E4A925" transform="translate(1440,90)"/>
<path d="M0 0 C8.58 0 17.16 0 26 0 C26 40.59 26 81.18 26 123 C17.42 123 8.84 123 0 123 C0 82.41 0 41.82 0 0 Z " fill="#E4A925" transform="translate(941,90)"/>
<path d="M0 0 C36.3 0 72.6 0 110 0 C110 8.58 110 17.16 110 26 C73.7 26 37.4 26 0 26 C0 17.42 0 8.84 0 0 Z " fill="#E4A925" transform="translate(688,91)"/>
<path d="M0 0 C35.97 0 71.94 0 109 0 C109 8.58 109 17.16 109 26 C73.03 26 37.06 26 0 26 C0 17.42 0 8.84 0 0 Z " fill="#E4A925" transform="translate(1112,91)"/>
<path d="M0 0 C35.97 0 71.94 0 109 0 C109 8.58 109 17.16 109 26 C73.03 26 37.06 26 0 26 C0 17.42 0 8.84 0 0 Z " fill="#E4A925" transform="translate(815,91)"/>
<path d="M0 0 C35.97 0 71.94 0 109 0 C109 8.58 109 17.16 109 26 C73.03 26 37.06 26 0 26 C0 17.42 0 8.84 0 0 Z " fill="#E4A925" transform="translate(431,91)"/>
<path d="M0 0 C1.8828125 0.23046875 1.8828125 0.23046875 4 1 C5.0546875 2.86328125 5.0546875 2.86328125 5.875 5.3125 C7.79075462 10.6229718 10.22317994 15.52769215 12.828125 20.53125 C14 23 14 23 14 25 C13.01 24.67 12.02 24.34 11 24 C10.505 21.525 10.505 21.525 10 19 C8.02 19.33 6.04 19.66 4 20 C4.165 19.13375 4.33 18.2675 4.5 17.375 C4.97218548 14.18774801 5.07655118 11.21514973 5 8 C4.34 8 3.68 8 3 8 C2.87882812 8.62648437 2.75765625 9.25296875 2.6328125 9.8984375 C2.46523437 10.71570313 2.29765625 11.53296875 2.125 12.375 C1.96257812 13.18710938 1.80015625 13.99921875 1.6328125 14.8359375 C1 17 1 17 -1 19 C-1 17.68 -1 16.36 -1 15 C-1.66 15 -2.32 15 -3 15 C-2.9278125 15.68964844 -2.855625 16.37929687 -2.78125 17.08984375 C-2.34411094 21.51587678 -1.93657035 25.86298553 -2.0625 30.3125 C-2.16587539 36.60691244 -0.987452 42.80197539 0 49 C0.99 49.33 1.98 49.66 3 50 C3.625 51.7421875 3.625 51.7421875 4 53.875 C4.69156801 57.09655433 5.20242118 59.01838167 8 61 C8.66 61.33 9.32 61.66 10 62 C10 62.99 10 63.98 10 65 C14.455 64.505 14.455 64.505 19 64 C18.67 64.99 18.34 65.98 18 67 C17.65772583 68.33106622 17.32248257 69.66400079 17 71 C17.66 71 18.32 71 19 71 C19.495 69.515 19.495 69.515 20 68 C20.33 68 20.66 68 21 68 C21.061875 68.928125 21.12375 69.85625 21.1875 70.8125 C21.67500908 74.19196489 21.67500908 74.19196489 24.5625 75.75 C25.366875 76.1625 26.17125 76.575 27 77 C27 77.66 27 78.32 27 79 C30.65079826 80.61064629 34.0507432 81.44894091 38 82 C37.505 83.485 37.505 83.485 37 85 C37.97839844 85.18175781 37.97839844 85.18175781 38.9765625 85.3671875 C42.9066323 86.12074071 46.64812407 86.87844286 50.4375 88.1875 C53.07735071 89.30097849 53.07735071 89.30097849 56 88 C55.484375 87.278125 54.96875 86.55625 54.4375 85.8125 C53 83 53 83 53.125 80.5625 C54 78 54 78 55.5625 75.5 C59.09420848 66.9010576 56.91464208 56.06475631 56 47 C52.06924356 47.57452746 52.06924356 47.57452746 49 50 C48.71630367 51.88844322 48.49613906 53.78671646 48.3125 55.6875 C47.46994079 61.11514884 46.17991544 64.24593668 42.01953125 67.86328125 C38.56199435 69.8093997 35.88102181 69.47661671 32 69 C31.3490741 67.75264433 30.70448331 66.50198168 30.0625 65.25 C29.70285156 64.55390625 29.34320313 63.8578125 28.97265625 63.140625 C27.47754887 59.85018787 26.78410866 57.99999669 27.5625 54.39453125 C29.53721788 51.10512348 31.36664846 50.7486832 35 49.6875 C36.0725 49.36136719 37.145 49.03523438 38.25 48.69921875 C41 48 41 48 43 48 C43.268125 47.443125 43.53625 46.88625 43.8125 46.3125 C45.10899496 43.78774666 46.42476323 41.36285516 48 39 C48.66 39 49.32 39 50 39 C50.03867188 37.98679687 50.03867188 37.98679687 50.078125 36.953125 C50.53617443 29.74925669 50.53617443 29.74925669 52.625 26.375 C55.99886474 24.42170989 58.16232553 24.46137902 62 25 C64.9375 26.5 64.9375 26.5 67 29 C67.59588312 31.76943775 67.64671497 34.24068279 67 37 C66.25169922 37.89138672 66.25169922 37.89138672 65.48828125 38.80078125 C61.75028064 44.32438846 63.61123319 55.05307891 64.8125 61.375 C65.4003125 63.169375 65.4003125 63.169375 66 65 C67.485 65.495 67.485 65.495 69 66 C72.69179618 63.07470528 72.69179618 63.07470528 74.44921875 58.83984375 C74.56658636 57.27755042 74.68116152 55.71504485 74.79296875 54.15234375 C75.10652123 50.89258116 75.66427969 49.33572031 78 47 C81.32166613 45.71456071 84.43253222 45.01754492 88 45 C90.67844293 46.82918053 91.57680486 48.15360973 93 51 C93.46712039 58.35714621 93.46712039 58.35714621 91.78515625 60.671875 C89.61730772 62.28471636 87.81650578 62.71885353 85.1875 63.3125 C81.01938127 64.51906068 77.97710635 65.72490417 75.046875 68.984375 C73.18869046 72.56207359 73.21033411 76.32306575 73.10546875 80.29296875 C72.91891892 85.08108108 72.91891892 85.08108108 71 87 C76.65986161 87.62807517 76.65986161 87.62807517 81.3125 85 C81.869375 84.34 82.42625 83.68 83 83 C83.99 83 84.98 83 86 83 C86 81.02 86 79.04 86 77 C89 78 89 78 90 80 C92.44480079 79.81171228 92.44480079 79.81171228 95 79 C96.06716704 77.20067421 96.06716704 77.20067421 97 75 C100.11963138 71.37448245 102.15175132 69.41556417 107 69 C106.95875 67.88625 106.9175 66.7725 106.875 65.625 C107 62 107 62 109 60 C109.59070014 58.05396726 109.59070014 58.05396726 110 56 C110.33 55.01 110.66 54.02 111 53 C111.66 53 112.32 53 113 53 C113.66 51.68 114.32 50.36 115 49 C115.66 49 116.32 49 117 49 C122.90078837 35.51248373 121.23555232 21.31916891 120 7 C125.82414883 12.82414883 124.0514115 25.89883072 124.06811523 33.70092773 C124.06001655 37.46751993 124.03579506 41.23356414 124 45 C123.34 45 122.68 45 122 45 C121.9175 45.78375 121.835 46.5675 121.75 47.375 C120.75634931 52.177645 118.91286482 56.49809489 117 61 C116.34 61 115.68 61 115 61 C114.855625 61.598125 114.71125 62.19625 114.5625 62.8125 C113.61634791 66.49198034 112.71071567 68.40223081 110 71 C109.67 71.66 109.34 72.32 109 73 C108.34 73 107.68 73 107 73 C106.505 74.485 106.505 74.485 106 76 C104.34467377 77.01866229 102.67739862 78.01810813 101 79 C100.34 79.99 99.68 80.98 99 82 C95.375 83.1875 95.375 83.1875 92 84 C92 84.66 92 85.32 92 86 C87.545 86.99 87.545 86.99 83 88 C83 88.66 83 89.32 83 90 C74.93609051 91.77357528 67.2435057 92.30805286 59 92.25 C57.90171875 92.25773437 56.8034375 92.26546875 55.671875 92.2734375 C48.57536849 92.25662113 41.93046305 91.52428521 35 90 C35 89.34 35 88.68 35 88 C32.36 87.34 29.72 86.68 27 86 C27 85.34 27 84.68 27 84 C26.236875 83.896875 25.47375 83.79375 24.6875 83.6875 C21.75657342 82.93772808 20.98482838 82.16526733 19 80 C17.515 79.505 17.515 79.505 16 79 C6.49197305 69.76823534 -0.25066996 59.05561759 -4.16796875 46.4765625 C-4.76716707 44.08446697 -4.76716707 44.08446697 -6 43 C-6.69562311 28.61839654 -6.93556747 12.9463926 0 0 Z M21 76 C21.33 76.66 21.66 77.32 22 78 C22.33 77.34 22.66 76.68 23 76 C22.34 76 21.68 76 21 76 Z " fill="#F9C267" transform="translate(72,122)"/>
<path d="M0 0 C0.66 0 1.32 0 2 0 C4.17597554 3.72337831 6.32955858 7.45857013 8.46362305 11.20605469 C9.19202545 12.47804823 9.92634813 13.74667109 10.66674805 15.01171875 C11.73254622 16.83511522 12.77617756 18.66973729 13.81640625 20.5078125 C14.45006104 21.60754395 15.08371582 22.70727539 15.73657227 23.84033203 C17.21597858 27.54013425 17.1121803 29.21337413 16 33 C14.89941406 35.51928711 14.89941406 35.51928711 13.515625 38.02734375 C12.99830811 38.97416016 12.48099121 39.92097656 11.94799805 40.89648438 C11.38765869 41.90001953 10.82731934 42.90355469 10.25 43.9375 C9.67741455 44.97841797 9.1048291 46.01933594 8.51489258 47.09179688 C2.43404788 58.11203361 -3.77751107 69.05936011 -10 80 C-20.89 80 -31.78 80 -43 80 C-42.09658709 75.48293545 -41.12645039 73.03904623 -38.9296875 69.1171875 C-38.61675247 68.55394775 -38.30381744 67.99070801 -37.98139954 67.41040039 C-36.95228446 65.56164046 -35.91373664 63.71836841 -34.875 61.875 C-34.15081695 60.5786404 -33.42727465 59.28192266 -32.7043457 57.98486328 C-31.21154452 55.30841032 -29.71520824 52.63397957 -28.21630859 49.9609375 C-26.12674443 46.23140032 -24.05447957 42.49252162 -21.98828125 38.75 C-18.34535619 32.15550454 -14.68161382 25.57297173 -11 19 C-10.443125 18.00468262 -9.88625 17.00936523 -9.3125 15.98388672 C-7.78007818 13.25472082 -6.236448 10.53231247 -4.6875 7.8125 C-4.23721436 7.00989746 -3.78692871 6.20729492 -3.32299805 5.38037109 C-2.27281394 3.55266065 -1.14478365 1.76999506 0 0 Z " fill="#E4A925" transform="translate(1417,133)"/>
<path d="M0 0 C8.91 0 17.82 0 27 0 C27 26.07 27 52.14 27 79 C18.09 79 9.18 79 0 79 C0 52.93 0 26.86 0 0 Z " fill="#E4A925" transform="translate(728,134)"/>
<path d="M0 0 C2.31 1.98 4.62 3.96 7 6 C8.59979245 7.10827049 10.21170601 8.19943231 11.83984375 9.265625 C18.28665276 14.06765607 24.73042618 19.19578796 26.52124023 27.38299561 C28.26243605 40.45876527 27.02584902 53.91592564 26 67 C17.42 67 8.84 67 0 67 C0 44.89 0 22.78 0 0 Z " fill="#E4A925" transform="translate(315,145)"/>
<path d="M0 0 C0.66 0 1.32 0 2 0 C4.58359097 2.87445045 6.78176686 6.06996747 9.0625 9.1875 C9.71283203 10.05181641 10.36316406 10.91613281 11.03320312 11.80664062 C11.65259766 12.64775391 12.27199219 13.48886719 12.91015625 14.35546875 C13.76299194 15.51018677 13.76299194 15.51018677 14.63305664 16.68823242 C16.15466469 19.26156813 16.84326606 21.01031484 17 24 C15.8918457 26.21655273 15.8918457 26.21655273 14.17578125 28.43359375 C13.55896484 29.24763672 12.94214844 30.06167969 12.30664062 30.90039062 C11.31954102 32.15625977 11.31954102 32.15625977 10.3125 33.4375 C9.03671852 35.10206655 7.76195432 36.76741336 6.48828125 38.43359375 C5.91634033 39.16634521 5.34439941 39.89909668 4.75512695 40.65405273 C2.86272292 43.06165472 2.86272292 43.06165472 1.25756836 46.2487793 C-1 49 -1 49 -4.48339844 49.68115234 C-5.8590898 49.68020828 -7.23502301 49.64663512 -8.609375 49.5859375 C-9.33618469 49.57744781 -10.06299438 49.56895813 -10.81182861 49.56021118 C-13.12608121 49.52670601 -15.43680705 49.45144932 -17.75 49.375 C-19.32156413 49.34489589 -20.89318308 49.31752083 -22.46484375 49.29296875 C-26.31124813 49.2269265 -30.15502691 49.12343921 -34 49 C-33.3875012 45.76968584 -32.30155659 43.73863773 -30.33203125 41.12109375 C-29.77507568 40.37375977 -29.21812012 39.62642578 -28.64428711 38.85644531 C-28.03979736 38.05819336 -27.43530762 37.25994141 -26.8125 36.4375 C-25.53890014 34.73319423 -24.26546762 33.02876341 -22.9921875 31.32421875 C-22.33444336 30.44813965 -21.67669922 29.57206055 -20.99902344 28.66943359 C-17.78751114 24.38088017 -14.61329167 20.06503173 -11.4375 15.75 C-10.86684814 14.97712646 -10.29619629 14.20425293 -9.70825195 13.40795898 C-9.16386475 12.67005127 -8.61947754 11.93214355 -8.05859375 11.171875 C-7.54151855 10.47255859 -7.02444336 9.77324219 -6.49169922 9.05273438 C-5.49556139 7.68194438 -4.51791074 6.29753174 -3.55908203 4.90039062 C-2.41670605 3.2358691 -1.21402435 1.61300951 0 0 Z " fill="#E4A925" transform="translate(579,164)"/>
<path d="M0 0 C1.8828125 0.23046875 1.8828125 0.23046875 4 1 C5.0546875 2.86328125 5.0546875 2.86328125 5.875 5.3125 C7.79075462 10.6229718 10.22317994 15.52769215 12.828125 20.53125 C14 23 14 23 14 25 C13.01 24.67 12.02 24.34 11 24 C10.505 21.525 10.505 21.525 10 19 C8.02 19.33 6.04 19.66 4 20 C4.165 19.13375 4.33 18.2675 4.5 17.375 C4.97218548 14.18774801 5.07655118 11.21514973 5 8 C4.34 8 3.68 8 3 8 C2.87882812 8.62648437 2.75765625 9.25296875 2.6328125 9.8984375 C2.46523437 10.71570313 2.29765625 11.53296875 2.125 12.375 C1.96257812 13.18710938 1.80015625 13.99921875 1.6328125 14.8359375 C1 17 1 17 -1 19 C-1 17.68 -1 16.36 -1 15 C-1.66 15 -2.32 15 -3 15 C-2.9278125 15.68964844 -2.855625 16.37929687 -2.78125 17.08984375 C-2.34411094 21.51587678 -1.93657035 25.86298553 -2.0625 30.3125 C-2.16587539 36.60691244 -0.987452 42.80197539 0 49 C0.99 49.33 1.98 49.66 3 50 C3.625 51.7421875 3.625 51.7421875 4 53.875 C4.69156801 57.09655433 5.20242118 59.01838167 8 61 C8.66 61.33 9.32 61.66 10 62 C10 62.99 10 63.98 10 65 C14.455 64.505 14.455 64.505 19 64 C18.67 64.99 18.34 65.98 18 67 C17.65772583 68.33106622 17.32248257 69.66400079 17 71 C17.66 71 18.32 71 19 71 C19.495 69.515 19.495 69.515 20 68 C20.33 68 20.66 68 21 68 C21.061875 68.928125 21.12375 69.85625 21.1875 70.8125 C21.67500908 74.19196489 21.67500908 74.19196489 24.5625 75.75 C25.366875 76.1625 26.17125 76.575 27 77 C27 77.66 27 78.32 27 79 C30.65079826 80.61064629 34.0507432 81.44894091 38 82 C37.505 83.485 37.505 83.485 37 85 C37.97839844 85.18175781 37.97839844 85.18175781 38.9765625 85.3671875 C42.9066323 86.12074071 46.64812407 86.87844286 50.4375 88.1875 C53.07735071 89.30097849 53.07735071 89.30097849 56 88 C56.33 87.34 56.66 86.68 57 86 C57.99 86.66 58.98 87.32 60 88 C62.74575806 88.02256723 62.74575806 88.02256723 65.75 87.625 C69.22815726 87.2511401 72.5104544 86.95233497 76 87.1875 C79.12632218 87.30153283 79.12632218 87.30153283 81.25 85 C82.11625 84.01 82.11625 84.01 83 83 C83.99 83 84.98 83 86 83 C86 81.02 86 79.04 86 77 C89 78 89 78 90 80 C92.44480079 79.81171228 92.44480079 79.81171228 95 79 C96.06716704 77.20067421 96.06716704 77.20067421 97 75 C100.11963138 71.37448245 102.15175132 69.41556417 107 69 C106.95875 67.88625 106.9175 66.7725 106.875 65.625 C107 62 107 62 109 60 C109.59070014 58.05396726 109.59070014 58.05396726 110 56 C110.33 55.01 110.66 54.02 111 53 C111.66 53 112.32 53 113 53 C113.66 51.68 114.32 50.36 115 49 C115.66 49 116.32 49 117 49 C122.90078837 35.51248373 121.23555232 21.31916891 120 7 C125.82414883 12.82414883 124.0514115 25.89883072 124.06811523 33.70092773 C124.06001655 37.46751993 124.03579506 41.23356414 124 45 C123.34 45 122.68 45 122 45 C121.9175 45.78375 121.835 46.5675 121.75 47.375 C120.75634931 52.177645 118.91286482 56.49809489 117 61 C116.34 61 115.68 61 115 61 C114.855625 61.598125 114.71125 62.19625 114.5625 62.8125 C113.61634791 66.49198034 112.71071567 68.40223081 110 71 C109.67 71.66 109.34 72.32 109 73 C108.34 73 107.68 73 107 73 C106.505 74.485 106.505 74.485 106 76 C104.34467377 77.01866229 102.67739862 78.01810813 101 79 C100.34 79.99 99.68 80.98 99 82 C95.375 83.1875 95.375 83.1875 92 84 C92 84.66 92 85.32 92 86 C87.545 86.99 87.545 86.99 83 88 C83 88.66 83 89.32 83 90 C74.93609051 91.77357528 67.2435057 92.30805286 59 92.25 C57.90171875 92.25773437 56.8034375 92.26546875 55.671875 92.2734375 C48.57536849 92.25662113 41.93046305 91.52428521 35 90 C35 89.34 35 88.68 35 88 C32.36 87.34 29.72 86.68 27 86 C27 85.34 27 84.68 27 84 C26.236875 83.896875 25.47375 83.79375 24.6875 83.6875 C21.75657342 82.93772808 20.98482838 82.16526733 19 80 C17.515 79.505 17.515 79.505 16 79 C6.49197305 69.76823534 -0.25066996 59.05561759 -4.16796875 46.4765625 C-4.76716707 44.08446697 -4.76716707 44.08446697 -6 43 C-6.69562311 28.61839654 -6.93556747 12.9463926 0 0 Z M21 76 C21.33 76.66 21.66 77.32 22 78 C22.33 77.34 22.66 76.68 23 76 C22.34 76 21.68 76 21 76 Z " fill="#F0B945" transform="translate(72,122)"/>
<path d="M0 0 C0.33 0 0.66 0 1 0 C1.10957031 1.05058594 1.21914062 2.10117188 1.33203125 3.18359375 C2.5367609 14.36157182 2.5367609 14.36157182 6 25 C6.47308594 26.08925781 6.94617188 27.17851562 7.43359375 28.30078125 C11.10575753 36.35962698 15.62272394 42.80079797 22 49 C22.62519531 49.64582031 23.25039062 50.29164063 23.89453125 50.95703125 C29.42827358 56.30437384 35.90410553 59.19227197 43 62 C43.82757813 62.34289062 44.65515625 62.68578125 45.5078125 63.0390625 C60.53768002 68.21011017 79.60118071 66.21804015 93.65454102 59.38525391 C109.82660465 51.09384029 120.03508645 38.3982493 125.9375 21.28125 C127.94032984 14.57947322 128.64723851 7.9700804 129 1 C129.33 1 129.66 1 130 1 C130 7.27 130 13.54 130 20 C129.34 20 128.68 20 128 20 C127.9175 20.78375 127.835 21.5675 127.75 22.375 C126.75634931 27.177645 124.91286482 31.49809489 123 36 C122.34 36 121.68 36 121 36 C120.855625 36.598125 120.71125 37.19625 120.5625 37.8125 C119.61634791 41.49198034 118.71071567 43.40223081 116 46 C115.505 46.99 115.505 46.99 115 48 C114.34 48 113.68 48 113 48 C112.67 48.99 112.34 49.98 112 51 C110.34467377 52.01866229 108.67739862 53.01810813 107 54 C106.34 54.99 105.68 55.98 105 57 C101.375 58.1875 101.375 58.1875 98 59 C98 59.66 98 60.32 98 61 C95.03 61.66 92.06 62.32 89 63 C89 63.66 89 64.32 89 65 C80.93609051 66.77357528 73.2435057 67.30805286 65 67.25 C63.90171875 67.25773437 62.8034375 67.26546875 61.671875 67.2734375 C54.57536849 67.25662113 47.93046305 66.52428521 41 65 C41 64.34 41 63.68 41 63 C38.36 62.34 35.72 61.68 33 61 C33 60.34 33 59.68 33 59 C32.236875 58.896875 31.47375 58.79375 30.6875 58.6875 C27.75657342 57.93772808 26.98482838 57.16526733 25 55 C23.515 54.505 23.515 54.505 22 54 C12.49197305 44.76823534 5.74933004 34.05561759 1.83203125 21.4765625 C1.23283293 19.08446697 1.23283293 19.08446697 0 18 C-0.08631874 16.65732587 -0.10706473 15.31025678 -0.09765625 13.96484375 C-0.09443359 13.15595703 -0.09121094 12.34707031 -0.08789062 11.51367188 C-0.07951172 10.66353516 -0.07113281 9.81339844 -0.0625 8.9375 C-0.05798828 8.08349609 -0.05347656 7.22949219 -0.04882812 6.34960938 C-0.03700373 4.23304337 -0.01906769 2.11651315 0 0 Z " fill="#F8E9CB" transform="translate(66,147)"/>
<path d="M0 0 C9.66853048 14.50279572 9.79065492 35.19943939 11 52 C15.79682762 40.99791452 18.42376998 29.68167065 21 18 C24.97659662 18.51244802 26.88740448 19.39364815 29.625 22.3125 C30.21667969 22.93898438 30.80835938 23.56546875 31.41796875 24.2109375 C33.06061886 26.0685517 34.60480885 27.94824832 36 30 C35.67 30.66 35.34 31.32 35 32 C33.65555841 31.09970429 32.32468562 30.17911978 31 29.25 C30.2575 28.73953125 29.515 28.2290625 28.75 27.703125 C28.1725 27.14109375 27.595 26.5790625 27 26 C27 24.68 27 23.36 27 22 C25.35 21.67 23.7 21.34 22 21 C22 25.95 22 30.9 22 36 C21.01 36.495 21.01 36.495 20 37 C19.27306096 38.97888961 18.60183749 40.97954558 18 43 C17.34 43 16.68 43 16 43 C16 45.97 16 48.94 16 52 C15.01 52 14.02 52 13 52 C13 52.66 13 53.32 13 54 C12.34 54 11.68 54 11 54 C11 54.66 11 55.32 11 56 C9.515 56.495 9.515 56.495 8 57 C7.34 56.67 6.68 56.34 6 56 C6 55.01 6 54.02 6 53 C4.515 53.495 4.515 53.495 3 54 C3.165 53.113125 3.33 52.22625 3.5 51.3125 C4.22125533 46.45404396 4.0267667 41.59382281 3.9375 36.6953125 C4 34 4 34 5 33 C4.74186904 30.99948505 4.47951646 28.99883999 4.15625 27.0078125 C4 25 4 25 5 22 C4.34 22 3.68 22 3 22 C3 19.03 3 16.06 3 13 C2.34 13 1.68 13 1 13 C-0.00496852 9.98509443 -0.10335303 7.95818308 -0.0625 4.8125 C-0.05347656 3.91144531 -0.04445312 3.01039062 -0.03515625 2.08203125 C-0.02355469 1.39496094 -0.01195312 0.70789063 0 0 Z " fill="#E6802F" transform="translate(144,75)"/>
<path d="M0 0 C1.32 0 2.64 0 4 0 C6.66436316 3.33045394 7.3619323 5.7774565 7 10 C6.01 9.67 5.02 9.34 4 9 C3.67 9.66 3.34 10.32 3 11 C-0.0625 11.625 -0.0625 11.625 -3 12 C-3.12375 12.5775 -3.2475 13.155 -3.375 13.75 C-4.00648824 16.02335767 -4.88858191 17.9253529 -6 20 C-6.66 20 -7.32 20 -8 20 C-9.99370257 21.44925619 -9.99370257 21.44925619 -12.0625 23.3125 C-12.77535156 23.92738281 -13.48820312 24.54226562 -14.22265625 25.17578125 C-16.2335627 26.97479547 -16.2335627 26.97479547 -17 30 C-16.60602665 32.63804589 -16.60602665 32.63804589 -16 35 C-15.34 35 -14.68 35 -14 35 C-14.33 35.66 -14.66 36.32 -15 37 C-17.28515625 37.4140625 -17.28515625 37.4140625 -20.0625 37.625 C-20.98160156 37.69976562 -21.90070313 37.77453125 -22.84765625 37.8515625 C-23.55792969 37.90054688 -24.26820312 37.94953125 -25 38 C-25.72666456 28.49746343 -18.22037479 21.32533558 -12.38964844 14.45507812 C-10.40978835 12.15770487 -8.41248559 9.87693923 -6.39306641 7.61425781 C-5.45036243 6.52187108 -4.54139475 5.39960133 -3.66552734 4.25292969 C-2.38671875 2.5859375 -2.38671875 2.5859375 0 0 Z " fill="#E42317" transform="translate(129,52)"/>
<path d="M0 0 C1.98 0.99 1.98 0.99 4 2 C4 2.66 4 3.32 4 4 C4.99 4.33 5.98 4.66 7 5 C8.19373793 6.42585364 9.38337587 7.85563444 10.5390625 9.3125 C12.59224511 11.68409061 14.93220552 13.61853078 17.3515625 15.60546875 C18.99388151 16.99482393 20.48582078 18.47354365 22 20 C24.71641057 22.30894899 26.60152395 23.86717465 30 25 C30.33 25.66 30.66 26.32 31 27 C31.99 27.33 32.98 27.66 34 28 C35 29 36 30 37 31 C40.00234227 33.12665911 42.50344611 34.83448204 46 36 C46 36.66 46 37.32 46 38 C48.31 38.66 50.62 39.32 53 40 C53 40.66 53 41.32 53 42 C53.7425 42.103125 54.485 42.20625 55.25 42.3125 C58 43 58 43 60 44.6875 C60.66 45.120625 61.32 45.55375 62 46 C65.17086167 45.14928101 67.256414 43.82905734 70 42 C70.99 42 71.98 42 73 42 C73 41.34 73 40.68 73 40 C74.64453125 38.74609375 74.64453125 38.74609375 76.8125 37.4375 C77.52019531 37.00308594 78.22789062 36.56867188 78.95703125 36.12109375 C81 35 81 35 84 34 C84.495 33.01 84.495 33.01 85 32 C88.35723464 29.94835661 91.27345083 28.24218306 95 27 C95 26.34 95 25.68 95 25 C95.639375 24.71125 96.27875 24.4225 96.9375 24.125 C99.15206079 23.17176549 99.15206079 23.17176549 100 21 C101.66279327 19.9935725 103.32983484 18.99414593 105 18 C106.75149165 16.41754725 106.75149165 16.41754725 108 15 C108.99 15.33 109.98 15.66 111 16 C98.91670249 27.70461867 84.48346703 36.59887565 70 45 C69.10023438 45.56847656 68.20046875 46.13695312 67.2734375 46.72265625 C64.30504029 48.39046705 62.35237728 48.4372666 59 48 C58.59265625 47.57847656 58.1853125 47.15695312 57.765625 46.72265625 C55.18020957 44.20016022 52.03662274 42.7460698 48.875 41.0625 C36.64850231 34.35520009 25.16014215 26.45943297 15 16.8828125 C13.32203432 15.30316513 11.62161305 13.86029203 9.8125 12.4375 C6.18150336 9.29063624 2.87756481 5.85661793 0 2 C0 1.34 0 0.68 0 0 Z " fill="#DEEEF1" transform="translate(68,210)"/>
<path d="M0 0 C1.9453125 0.16796875 1.9453125 0.16796875 4 1 C5.0546875 2.86328125 5.0546875 2.86328125 5.875 5.3125 C7.79075462 10.6229718 10.22317994 15.52769215 12.828125 20.53125 C14 23 14 23 14 25 C13.01 24.67 12.02 24.34 11 24 C10.67 22.35 10.34 20.7 10 19 C8.02 19.33 6.04 19.66 4 20 C4.165 19.13375 4.33 18.2675 4.5 17.375 C4.97218548 14.18774801 5.07655118 11.21514973 5 8 C4.34 8 3.68 8 3 8 C2.87882812 8.62648437 2.75765625 9.25296875 2.6328125 9.8984375 C2.46523437 10.71570313 2.29765625 11.53296875 2.125 12.375 C1.96257812 13.18710938 1.80015625 13.99921875 1.6328125 14.8359375 C1 17 1 17 -1 19 C-1 17.68 -1 16.36 -1 15 C-1.66 15 -2.32 15 -3 15 C-2.9278125 15.68964844 -2.855625 16.37929687 -2.78125 17.08984375 C-2.34411094 21.51587678 -1.93657035 25.86298553 -2.0625 30.3125 C-2.16587539 36.60691244 -0.987452 42.80197539 0 49 C0.99 49.33 1.98 49.66 3 50 C3.66015625 51.7421875 3.66015625 51.7421875 4.0625 53.875 C4.6650556 56.98533464 5.15919177 58.23878766 7 61 C6.67 61.99 6.34 62.98 6 64 C-3.7435763 47.05867493 -8.73564716 29.35633522 -4.1328125 9.66015625 C-1.7326664 1.7326664 -1.7326664 1.7326664 0 0 Z " fill="#E7AA4E" transform="translate(72,122)"/>
<path d="M0 0 C5.04340001 5.04340001 3.36552861 14.52811047 3.38500977 21.1550293 C3.15552412 38.44832322 -3.05543919 53.32523238 -14.9609375 66.03515625 C-20.01993812 70.910017 -25.72096755 74.86048378 -32 78 C-32.66 77.67 -33.32 77.34 -34 77 C-32.02 76.01 -32.02 76.01 -30 75 C-30 74.34 -30 73.68 -30 73 C-29.21625 72.9175 -28.4325 72.835 -27.625 72.75 C-24.90274438 72.30277024 -24.90274438 72.30277024 -24 70.25 C-23.67 69.5075 -23.34 68.765 -23 68 C-19.88036862 64.37448245 -17.84824868 62.41556417 -13 62 C-13.04125 60.88625 -13.0825 59.7725 -13.125 58.625 C-13 55 -13 55 -11 53 C-10.40929986 51.05396726 -10.40929986 51.05396726 -10 49 C-9.67 48.01 -9.34 47.02 -9 46 C-8.34 46 -7.68 46 -7 46 C-6.34 44.68 -5.68 43.36 -5 42 C-4.34 42 -3.68 42 -3 42 C2.90078837 28.51248373 1.23555232 14.31916891 0 0 Z " fill="#E9B050" transform="translate(192,129)"/>
<path d="M0 0 C0.33 1.32 0.66 2.64 1 4 C0.34 4 -0.32 4 -1 4 C-1 5.32 -1 6.64 -1 8 C-0.34 8.33 0.32 8.66 1 9 C0.25943359 9.59748047 0.25943359 9.59748047 -0.49609375 10.20703125 C-1.13675781 10.73683594 -1.77742188 11.26664063 -2.4375 11.8125 C-3.07558594 12.33457031 -3.71367188 12.85664062 -4.37109375 13.39453125 C-6.2548275 15.00834411 -6.2548275 15.00834411 -7 18 C-6.60602665 20.63804589 -6.60602665 20.63804589 -6 23 C-5.34 23 -4.68 23 -4 23 C-4.33 23.66 -4.66 24.32 -5 25 C-7.28515625 25.4140625 -7.28515625 25.4140625 -10.0625 25.625 C-10.98160156 25.69976562 -11.90070313 25.77453125 -12.84765625 25.8515625 C-13.91306641 25.92503906 -13.91306641 25.92503906 -15 26 C-15.71331855 17.56532102 -10.01568459 11.68646304 -4.91015625 5.4453125 C-3.30345225 3.5987529 -1.67744043 1.78228046 0 0 Z " fill="#E04B34" transform="translate(119,64)"/>
<path d="M0 0 C3.97659662 0.51244802 5.88740448 1.39364815 8.625 4.3125 C9.21667969 4.93898438 9.80835938 5.56546875 10.41796875 6.2109375 C12.06061886 8.0685517 13.60480885 9.94824832 15 12 C14.67 12.66 14.34 13.32 14 14 C12.65555841 13.09970429 11.32468562 12.17911978 10 11.25 C9.2575 10.73953125 8.515 10.2290625 7.75 9.703125 C7.1725 9.14109375 6.595 8.5790625 6 8 C6 6.68 6 5.36 6 4 C3.525 3.505 3.525 3.505 1 3 C1 7.95 1 12.9 1 18 C0.34 18.33 -0.32 18.66 -1 19 C-1.72693904 20.97888961 -2.39816251 22.97954558 -3 25 C-3.66 25 -4.32 25 -5 25 C-5 27.97 -5 30.94 -5 34 C-5.99 34 -6.98 34 -8 34 C-8 34.66 -8 35.32 -8 36 C-8.66 36 -9.32 36 -10 36 C-10 36.66 -10 37.32 -10 38 C-10.66 38 -11.32 38 -12 38 C-12 34.04 -12 30.08 -12 26 C-11.67 26 -11.34 26 -11 26 C-10.67 28.64 -10.34 31.28 -10 34 C-5.20317238 22.99791452 -2.57623002 11.68167065 0 0 Z " fill="#DF8551" transform="translate(165,93)"/>
<path d="M0 0 C1.65 0.33 3.3 0.66 5 1 C5 2.32 5 3.64 5 5 C5.556875 5.2475 6.11375 5.495 6.6875 5.75 C9.46269757 7.25010679 11.7035771 8.83115615 14 11 C14 12.32 14 13.64 14 15 C9.73173127 15 9.06117568 14.62386487 6 12 C4.02 14.97 4.02 14.97 2 18 C1.01 17.67 0.02 17.34 -1 17 C-1.02709444 14.91673869 -1.04643873 12.83337559 -1.0625 10.75 C-1.07410156 9.58984375 -1.08570313 8.4296875 -1.09765625 7.234375 C-1.01782092 4.59022872 -0.78643778 2.50173909 0 0 Z " fill="#EB601D" transform="translate(166,96)"/>
<path d="M0 0 C0.66 0.33 1.32 0.66 2 1 C2 1.99 2 2.98 2 4 C6.455 3.505 6.455 3.505 11 3 C10.67 3.99 10.34 4.98 10 6 C9.65772583 7.33106622 9.32248257 8.66400079 9 10 C9.66 10 10.32 10 11 10 C11.33 9.01 11.66 8.02 12 7 C12.33 7 12.66 7 13 7 C13.061875 7.928125 13.12375 8.85625 13.1875 9.8125 C13.67500908 13.19196489 13.67500908 13.19196489 16.5625 14.75 C17.366875 15.1625 18.17125 15.575 19 16 C19 16.66 19 17.32 19 18 C20.65 18.66 22.3 19.32 24 20 C24 20.66 24 21.32 24 22 C18.12035712 22.10888228 15.34904116 20.86937895 10.9375 16.9375 C9.2685797 15.31508213 7.62204184 13.66928577 6 12 C5.26523438 11.26265625 4.53046875 10.5253125 3.7734375 9.765625 C0.12898099 5.90337229 0.12898099 5.90337229 -1 4 C-0.67578125 1.76953125 -0.67578125 1.76953125 0 0 Z M13 15 C13.33 15.66 13.66 16.32 14 17 C14.33 16.34 14.66 15.68 15 15 C14.34 15 13.68 15 13 15 Z " fill="#F3B133" transform="translate(80,183)"/>
<path d="M0 0 C1.5030755 4.00820134 0.83590766 7.90575841 0 12 C-0.63270867 13.34977849 -1.30062468 14.68352881 -2 16 C-3.69737563 21.75221742 -4.29058254 26.83500101 -4.1875 32.8125 C-4.18105469 33.59351074 -4.17460938 34.37452148 -4.16796875 35.17919922 C-4.08901733 41.15113415 -3.73145989 47.06995017 -3 53 C-2.67 53 -2.34 53 -2 53 C-2.33 55.64 -2.66 58.28 -3 61 C-7.52822738 54.20765893 -6.28222558 45.01830476 -6.3125 37.125 C-6.31578308 36.43013489 -6.31906616 35.73526978 -6.32244873 35.01934814 C-6.34172449 22.44245858 -4.83276552 11.71183717 0 0 Z " fill="#E5A163" transform="translate(99,95)"/>
<path d="M0 0 C0.66 0 1.32 0 2 0 C2 1.32 2 2.64 2 4 C3.32 4 4.64 4 6 4 C7.33819498 6.6226232 8.6707151 9.24786599 10 11.875 C10.3815625 12.62136719 10.763125 13.36773437 11.15625 14.13671875 C11.5171875 14.85214844 11.878125 15.56757813 12.25 16.3046875 C12.58515625 16.96452637 12.9203125 17.62436523 13.265625 18.30419922 C14 20 14 20 14 22 C13.01 21.67 12.02 21.34 11 21 C10.67 19.35 10.34 17.7 10 16 C8.02 16.33 6.04 16.66 4 17 C4.165 16.13375 4.33 15.2675 4.5 14.375 C4.97218548 11.18774801 5.07655118 8.21514973 5 5 C4.34 5 3.68 5 3 5 C2.87882812 5.62648437 2.75765625 6.25296875 2.6328125 6.8984375 C2.46523437 7.71570313 2.29765625 8.53296875 2.125 9.375 C1.96257812 10.18710938 1.80015625 10.99921875 1.6328125 11.8359375 C1 14 1 14 -1 16 C-1 14.68 -1 13.36 -1 12 C-1.66 12 -2.32 12 -3 12 C-2.49202991 7.6822542 -1.80317221 3.96697886 0 0 Z " fill="#EB862A" transform="translate(72,125)"/>
<path d="M0 0 C6.64699513 9.9704927 9.71231563 25.12807287 9 37 C5.96447899 33.96447899 6.61071942 30.68215358 6.44140625 26.53125 C6.29574219 25.6959375 6.15007812 24.860625 6 24 C5.01 23.34 4.02 22.68 3 22 C2.70703125 19.8359375 2.70703125 19.8359375 2.8125 17.375 C2.83957031 16.55773437 2.86664063 15.74046875 2.89453125 14.8984375 C2.92933594 14.27195312 2.96414062 13.64546875 3 13 C2.34 13 1.68 13 1 13 C-0.00496852 9.98509443 -0.10335303 7.95818308 -0.0625 4.8125 C-0.05347656 3.91144531 -0.04445312 3.01039062 -0.03515625 2.08203125 C-0.02355469 1.39496094 -0.01195312 0.70789063 0 0 Z " fill="#DE8D65" transform="translate(144,75)"/>
<path d="M0 0 C0.33 0 0.66 0 1 0 C1 2.64 1 5.28 1 8 C0.34 8 -0.32 8 -1 8 C-1.09579346 8.55107422 -1.19158691 9.10214844 -1.2902832 9.66992188 C-2.42835986 15.50977464 -4.32792135 20.30245381 -7.1875 25.5 C-7.58316162 26.23468506 -7.97882324 26.96937012 -8.38647461 27.72631836 C-11.4203712 33.23756189 -14.81894903 38.28119328 -19 43 C-19.495 41.515 -19.495 41.515 -20 40 C-18.38405168 37.95880212 -16.7143618 35.95927063 -15 34 C-14.67 33.01 -14.34 32.02 -14 31 C-13.34 31 -12.68 31 -12 31 C-11.01 27.535 -11.01 27.535 -10 24 C-9.34 24 -8.68 24 -8 24 C-7.7834375 22.8553125 -7.7834375 22.8553125 -7.5625 21.6875 C-7 19 -7 19 -6 16 C-5.34 16 -4.68 16 -4 16 C-3.34 12.37 -2.68 8.74 -2 5 C-1.34 5 -0.68 5 0 5 C0 3.35 0 1.7 0 0 Z " fill="#E2F2F5" transform="translate(214,167)"/>
<path d="M0 0 C2.66735273 2.48952921 4.55746343 4.63408134 6 8 C6 6.02 6 4.04 6 2 C8 4 8 4 8 7 C8.66 7 9.32 7 10 7 C11.125 12.75 11.125 12.75 10 15 C8.35 14.67 6.7 14.34 5 14 C5 13.01 5 12.02 5 11 C4.34 11 3.68 11 3 11 C3 10.01 3 9.02 3 8 C2.01 7.67 1.02 7.34 0 7 C0 4.69 0 2.38 0 0 Z " fill="#EAAE4E" transform="translate(90,154)"/>
<path d="M0 0 C0.99 0.33 1.98 0.66 3 1 C3.33 2.65 3.66 4.3 4 6 C4.66 6 5.32 6 6 6 C5.67 6.66 5.34 7.32 5 8 C2.71484375 8.4140625 2.71484375 8.4140625 -0.0625 8.625 C-0.98160156 8.69976562 -1.90070313 8.77453125 -2.84765625 8.8515625 C-3.91306641 8.92503906 -3.91306641 8.92503906 -5 9 C-4.67 7.35 -4.34 5.7 -4 4 C-3.34 4 -2.68 4 -2 4 C-2 3.01 -2 2.02 -2 1 C-1.34 0.67 -0.68 0.34 0 0 Z " fill="#E3481B" transform="translate(109,81)"/>
<path d="M0 0 C1.8125 2.375 1.8125 2.375 3 5 C2.67 5.66 2.34 6.32 2 7 C-0.475 6.01 -0.475 6.01 -3 5 C-3 5.99 -3 6.98 -3 8 C-3.721875 7.9175 -4.44375 7.835 -5.1875 7.75 C-8.83548794 8.07426559 -10.34568298 9.57319587 -13 12 C-11.57298983 8.86340338 -9.85240215 6.37619467 -7.625 3.75 C-7.03976563 3.04359375 -6.45453125 2.3371875 -5.8515625 1.609375 C-4 0 -4 0 0 0 Z " fill="#D44E49" transform="translate(133,52)"/>
<path d="M0 0 C0.77239014 0.21438721 1.54478027 0.42877441 2.34057617 0.6496582 C10.80903687 2.82487412 18.59676694 3.37334669 27.3125 3.1875 C28.54162109 3.17396484 29.77074219 3.16042969 31.03710938 3.14648438 C34.02522513 3.11160365 37.01235873 3.06259698 40 3 C36.6054163 5.2630558 35.38865276 5.25667291 31.40625 5.265625 C29.735625 5.26949219 29.735625 5.26949219 28.03125 5.2734375 C26.8659375 5.26570312 25.700625 5.25796875 24.5 5.25 C23.365625 5.25773438 22.23125 5.26546875 21.0625 5.2734375 C13.83104225 5.25685159 7.06045818 4.56700765 0 3 C0 2.01 0 1.02 0 0 Z " fill="#F9E5B9" transform="translate(107,209)"/>
<path d="M0 0 C0.66 0.33 1.32 0.66 2 1 C2.69713153 4.62376864 2.80330091 8.31891705 3 12 C3.05414063 12.95132813 3.10828125 13.90265625 3.1640625 14.8828125 C3.32826794 20.00303669 3.32826794 20.00303669 3 22 C2.01 22.66 1.02 23.32 0 24 C-0.19393875 21.85473901 -0.37998676 19.70876323 -0.5625 17.5625 C-0.71912109 15.77005859 -0.71912109 15.77005859 -0.87890625 13.94140625 C-0.91886719 12.97074219 -0.95882812 12.00007813 -1 11 C-0.67 10.67 -0.34 10.34 0 10 C-0.25816043 7.96698665 -0.5205469 5.93384839 -0.84375 3.91015625 C-1 2 -1 2 0 0 Z " fill="#E86F22" transform="translate(149,98)"/>
<path d="M0 0 C2.55375615 3.17494007 4.37447153 6.48103661 6.1875 10.125 C6.71730469 11.17945313 7.24710938 12.23390625 7.79296875 13.3203125 C9 16 9 16 9 18 C8.01 17.67 7.02 17.34 6 17 C5.67 15.35 5.34 13.7 5 12 C3.02 12.33 1.04 12.66 -1 13 C-0.835 12.154375 -0.67 11.30875 -0.5 10.4375 C0.01329288 6.90861144 0.07121346 3.56067311 0 0 Z " fill="#E7B06B" transform="translate(77,129)"/>
<path d="M0 0 C0.66 0 1.32 0 2 0 C2.76681614 12.59282511 2.76681614 12.59282511 0.88671875 16.04296875 C-0.5 17.375 -0.5 17.375 -3 19 C-3.38614349 12.1781317 -2.00865708 6.50422293 0 0 Z " fill="#E97320" transform="translate(97,108)"/>
<path d="M0 0 C0.89377528 3.57510111 1.0258444 5.24917563 0.5625 8.75 C0.46066406 9.54921875 0.35882813 10.3484375 0.25390625 11.171875 C0.12822266 12.07679687 0.12822266 12.07679687 0 13 C-0.99 13 -1.98 13 -3 13 C-3 13.66 -3 14.32 -3 15 C-3.66 15 -4.32 15 -5 15 C-5 15.66 -5 16.32 -5 17 C-5.66 17 -6.32 17 -7 17 C-7 13.04 -7 9.08 -7 5 C-6.67 5 -6.34 5 -6 5 C-5.67 7.64 -5.34 10.28 -5 13 C-3.35 8.71 -1.7 4.42 0 0 Z " fill="#E9AF7C" transform="translate(160,114)"/>
<path d="M0 0 C1.6868877 5.68214804 0.75678784 10.83102281 -2 16 C-2.38290462 17.99110401 -2.72604615 19.99100513 -3 22 C-3.33 22 -3.66 22 -4 22 C-4.57184845 13.78762084 -3.26682231 7.53994257 0 0 Z " fill="#DC8D62" transform="translate(99,95)"/>
<path d="M0 0 C1.32 0.33 2.64 0.66 4 1 C4.33 2.98 4.66 4.96 5 7 C4.01 7 3.02 7 2 7 C2 5.68 2 4.36 2 3 C1.34 3 0.68 3 0 3 C-0.12375 3.721875 -0.2475 4.44375 -0.375 5.1875 C-0.9904931 7.95721894 -1.88444374 10.3970354 -3 13 C-3.93045933 10.44855176 -4.08564091 9.25993522 -3.22265625 6.640625 C-2.83980469 5.85171875 -2.45695312 5.0628125 -2.0625 4.25 C-1.68222656 3.45078125 -1.30195312 2.6515625 -0.91015625 1.828125 C-0.60980469 1.22484375 -0.30945313 0.6215625 0 0 Z " fill="#ECBB8D" transform="translate(72,122)"/>
<path d="M0 0 C0.33 1.32 0.66 2.64 1 4 C0.34 4 -0.32 4 -1 4 C-1.28875 4.763125 -1.5775 5.52625 -1.875 6.3125 C-3 9 -3 9 -5 12 C-5.66 12 -6.32 12 -7 12 C-7 12.99 -7 13.98 -7 15 C-7.99 15.33 -8.98 15.66 -10 16 C-8.61936434 12.14254559 -6.82183102 9.07512134 -4.4375 5.75 C-3.81746094 4.87859375 -3.19742188 4.0071875 -2.55859375 3.109375 C-1 1 -1 1 0 0 Z " fill="#D77864" transform="translate(114,70)"/>
<path d="M0 0 C0.99 0.33 1.98 0.66 3 1 C-2.05216018 5.71993196 -6.82601539 9.84732701 -13 13 C-13 12.01 -13 11.02 -13 10 C-12.360625 9.71125 -11.72125 9.4225 -11.0625 9.125 C-8.84793921 8.17176549 -8.84793921 8.17176549 -8 6 C-6.33720673 4.9935725 -4.67016516 3.99414593 -3 3 C-1.24850835 1.41754725 -1.24850835 1.41754725 0 0 Z " fill="#E2F2F5" transform="translate(176,225)"/>
<path d="M0 0 C0.66 0.99 1.32 1.98 2 3 C2.66 2.34 3.32 1.68 4 1 C4.99 1 5.98 1 7 1 C7 1.66 7 2.32 7 3 C6.525625 3.45375 6.05125 3.9075 5.5625 4.375 C3.76249409 6.24700614 3.57778466 7.52378005 3 10 C2.01 10.495 2.01 10.495 1 11 C-1.03684712 6.92630576 -1.0257259 4.41062136 0 0 Z " fill="#F39C2E" transform="translate(97,150)"/>
<path d="M0 0 C2.64492308 1.32246154 2.97833787 2.64535898 4.1875 5.3125 C4.55230469 6.09238281 4.91710937 6.87226562 5.29296875 7.67578125 C6.07807525 10.2566562 5.89937661 11.49663962 5 14 C5 13.34 5 12.68 5 12 C4.360625 11.71125 3.72125 11.4225 3.0625 11.125 C1 10 1 10 0 8 C-0.13415472 5.3276379 -0.04318541 2.67749512 0 0 Z " fill="#E29D65" transform="translate(186,115)"/>
<path d="M0 0 C0.66 0.33 1.32 0.66 2 1 C-2.16048113 5.84979161 -6.31778162 10.64444802 -11 15 C-11.66 15 -12.32 15 -13 15 C-11.6618467 10.9855401 -9.23686108 9.64233558 -6 7 C-5.34 6.01 -4.68 5.02 -4 4 C-3.34 4 -2.68 4 -2 4 C-1.34 2.68 -0.68 1.36 0 0 Z " fill="#DCEFF4" transform="translate(192,210)"/>
<path d="M0 0 C0.66 0 1.32 0 2 0 C2.66 2.31 3.32 4.62 4 7 C4.66 7 5.32 7 6 7 C7.25390625 8.609375 7.25390625 8.609375 8.5625 10.75 C8.99691406 11.44609375 9.43132812 12.1421875 9.87890625 12.859375 C10.95809038 14.91997745 11.54470671 16.72864922 12 19 C6.31605744 13.81758179 1.15160418 7.78703782 0 0 Z " fill="#DFF0F5" transform="translate(56,191)"/>
<path d="M0 0 C0.66 0 1.32 0 2 0 C2 1.32 2 2.64 2 4 C2.99 4 3.98 4 5 4 C5.33 7.3 5.66 10.6 6 14 C5.34 14 4.68 14 4 14 C3.67 11.69 3.34 9.38 3 7 C2.360625 6.896875 1.72125 6.79375 1.0625 6.6875 C0.381875 6.460625 -0.29875 6.23375 -1 6 C-1.33 5.01 -1.66 4.02 -2 3 C-1.34 2.01 -0.68 1.02 0 0 Z " fill="#E97322" transform="translate(181,111)"/>
<path d="M0 0 C0.99 0 1.98 0 3 0 C4 3 4 3 3.0625 5.1875 C2.5365625 6.0846875 2.5365625 6.0846875 2 7 C0.33333333 7 -1.33333333 7 -3 7 C-3 5.68 -3 4.36 -3 3 C-2.34 3 -1.68 3 -1 3 C-0.67 2.01 -0.34 1.02 0 0 Z " fill="#EA2D17" transform="translate(121,65)"/>
<path d="M0 0 C0.33 0 0.66 0 1 0 C1 4.95 1 9.9 1 15 C0.34 14.67 -0.32 14.34 -1 14 C-1 13.01 -1 12.02 -1 11 C-1.66 11 -2.32 11 -3 11 C-2.01 7.37 -1.02 3.74 0 0 Z " fill="#EF9A28" transform="translate(193,143)"/>
<path d="M0 0 C0 1.65 0 3.3 0 5 C-0.99 5.495 -0.99 5.495 -2 6 C-2.33 6.99 -2.66 7.98 -3 9 C-4.32 9 -5.64 9 -7 9 C-7 7 -7 7 -5 5 C-4.855625 4.319375 -4.71125 3.63875 -4.5625 2.9375 C-4.376875 2.298125 -4.19125 1.65875 -4 1 C-1 0 -1 0 0 0 Z " fill="#F8AC2C" transform="translate(186,177)"/>
<path d="M0 0 C0.66 0.99 1.32 1.98 2 3 C0.783125 2.896875 -0.43375 2.79375 -1.6875 2.6875 C-5.31679331 2.67465294 -5.86098943 2.88818715 -8.875 5.3125 C-11.05597052 7.99625809 -11.05597052 7.99625809 -13 11 C-12.44422993 7.66537956 -11.89881222 4.82506209 -10 2 C-7.6171875 1.171875 -7.6171875 1.171875 -4.875 0.75 C-3.50988281 0.52570313 -3.50988281 0.52570313 -2.1171875 0.296875 C-1.41851562 0.19890625 -0.71984375 0.1009375 0 0 Z " fill="#F8B853" transform="translate(160,167)"/>
<path d="M0 0 C4.22222222 6.33333333 4.22222222 6.33333333 3.625 10.8125 C3.41875 11.534375 3.2125 12.25625 3 13 C2.34 13 1.68 13 1 13 C-0.00496852 9.98509443 -0.10335303 7.95818308 -0.0625 4.8125 C-0.05347656 3.91144531 -0.04445312 3.01039062 -0.03515625 2.08203125 C-0.02355469 1.39496094 -0.01195312 0.70789063 0 0 Z " fill="#DB785C" transform="translate(144,75)"/>
<path d="M0 0 C3 1 3 1 3.9375 2.8125 C4 5 4 5 2.3125 7.25 C0 9 0 9 -4 9 C-3.67 8.01 -3.34 7.02 -3 6 C-2.01 6 -1.02 6 0 6 C0 4.02 0 2.04 0 0 Z " fill="#F7B431" transform="translate(158,199)"/>
<path d="M0 0 C0.33 0 0.66 0 1 0 C1 2.64 1 5.28 1 8 C0.34 8 -0.32 8 -1 8 C-1.12117187 8.62648437 -1.24234375 9.25296875 -1.3671875 9.8984375 C-1.61855469 11.12433594 -1.61855469 11.12433594 -1.875 12.375 C-2.03742188 13.18710938 -2.19984375 13.99921875 -2.3671875 14.8359375 C-3 17 -3 17 -5 19 C-4.68872484 17.41642541 -4.37592711 15.83315007 -4.0625 14.25 C-3.80146484 12.92742187 -3.80146484 12.92742187 -3.53515625 11.578125 C-3.07631512 9.36764947 -2.56663926 7.18487932 -2 5 C-1.34 5 -0.68 5 0 5 C0 3.35 0 1.7 0 0 Z " fill="#D9E3DE" transform="translate(214,167)"/>
<path d="M0 0 C0 1.65 0 3.3 0 5 C0.66 5.33 1.32 5.66 2 6 C-0.475 7.485 -0.475 7.485 -3 9 C-3.79953138 5.71303767 -4.09658936 4.28976808 -3 1 C-1 0 -1 0 0 0 Z " fill="#EA7825" transform="translate(163,117)"/>
<path d="M0 0 C4.2742558 1.5830577 6.26531794 4.50568404 9 8 C8.67 8.66 8.34 9.32 8 10 C6.65555841 9.09970429 5.32468562 8.17911978 4 7.25 C3.2575 6.73953125 2.515 6.2290625 1.75 5.703125 C1.1725 5.14109375 0.595 4.5790625 0 4 C0 2.68 0 1.36 0 0 Z " fill="#E19B7B" transform="translate(171,97)"/>
<path d="M0 0 C0.58523437 0.22042969 1.17046875 0.44085938 1.7734375 0.66796875 C0.3503125 1.28671875 0.3503125 1.28671875 -1.1015625 1.91796875 C-4.23372874 3.67198185 -5.09156856 4.37648632 -6.2265625 7.66796875 C-6.8865625 7.66796875 -7.5465625 7.66796875 -8.2265625 7.66796875 C-9.2165625 8.32796875 -10.2065625 8.98796875 -11.2265625 9.66796875 C-9.86804119 6.58103171 -8.38145297 4.58155141 -5.8515625 2.35546875 C-4.97371094 1.55689453 -4.97371094 1.55689453 -4.078125 0.7421875 C-2.2265625 -0.33203125 -2.2265625 -0.33203125 0 0 Z " fill="#F7B334" transform="translate(156.2265625,185.33203125)"/>
<path d="M0 0 C0.66 0 1.32 0 2 0 C2.33 4.62 2.66 9.24 3 14 C2.01 14 1.02 14 0 14 C-1.12435141 10.62694576 -0.75339064 8.4321129 0 5 C0.0370279 3.3337447 0.04759962 1.66598681 0 0 Z " fill="#E2451D" transform="translate(142,75)"/>
<path d="M0 0 C2 1.75 2 1.75 4 4 C4 5.32 4 6.64 4 8 C4.99 8.66 5.98 9.32 7 10 C5.68 10.33 4.36 10.66 3 11 C0.29417212 7.16674383 -0.32613618 4.67461851 0 0 Z " fill="#F7AA2C" transform="translate(75,172)"/>
<path d="M0 0 C2.375 0.3125 2.375 0.3125 5 1 C5.66 1.99 6.32 2.98 7 4 C4.03 3.505 4.03 3.505 1 3 C1 4.32 1 5.64 1 7 C0.34 7 -0.32 7 -1 7 C-0.67 4.69 -0.34 2.38 0 0 Z " fill="#D78665" transform="translate(165,93)"/>
<path d="M0 0 C2.49505962 2.49505962 2.35948376 3.67328888 2.625 7.125 C2.69976562 8.03507813 2.77453125 8.94515625 2.8515625 9.8828125 C2.90054688 10.58148438 2.94953125 11.28015625 3 12 C1.35 10.68 -0.3 9.36 -2 8 C-1.67 6.68 -1.34 5.36 -1 4 C-0.67 4.66 -0.34 5.32 0 6 C0 4.02 0 2.04 0 0 Z " fill="#F0CC85" transform="translate(96,156)"/>
<path d="M0 0 C0.66 0 1.32 0 2 0 C2.33 1.65 2.66 3.3 3 5 C1.02 5.99 1.02 5.99 -1 7 C-1 8.65 -1 10.3 -1 12 C-1.33 12 -1.66 12 -2 12 C-2.17835515 7.45194365 -1.99785435 4.1205746 0 0 Z " fill="#E35821" transform="translate(101,94)"/>
<path d="M0 0 C2 1.25 2 1.25 4 3 C4 4.32 4 5.64 4 7 C0 7 0 7 -2 6 C-2 5.34 -2 4.68 -2 4 C-1.34 4 -0.68 4 0 4 C0 2.68 0 1.36 0 0 Z " fill="#E06824" transform="translate(176,104)"/>
<path d="M0 0 C0.99 0 1.98 0 3 0 C3.33 2.97 3.66 5.94 4 9 C3.01 9.66 2.02 10.32 1 11 C1.33 8.69 1.66 6.38 2 4 C1.34 4 0.68 4 0 4 C0 2.68 0 1.36 0 0 Z " fill="#D93926" transform="translate(136,63)"/>
<path d="M0 0 C1.32 0.66 2.64 1.32 4 2 C2.68 2.33 1.36 2.66 0 3 C0.33 4.65 0.66 6.3 1 8 C0.34 8 -0.32 8 -1 8 C-1 7.34 -1 6.68 -1 6 C-2.32 6.33 -3.64 6.66 -5 7 C-3.70700306 4.11562221 -2.34058637 2.12780579 0 0 Z " fill="#D52A20" transform="translate(125,59)"/>
<path d="M0 0 C0.66 0.33 1.32 0.66 2 1 C2 4.96 2 8.92 2 13 C1.01 13.495 1.01 13.495 0 14 C-0.33 13.01 -0.66 12.02 -1 11 C-0.67 10.67 -0.34 10.34 0 10 C-0.25816043 7.96698665 -0.5205469 5.93384839 -0.84375 3.91015625 C-1 2 -1 2 0 0 Z " fill="#E36225" transform="translate(149,98)"/>
<path d="M0 0 C0.99 0.33 1.98 0.66 3 1 C-6.41002278 4.44419134 -6.41002278 4.44419134 -11 4 C-10.67 3.01 -10.34 2.02 -10 1 C-7.98177083 1.03255208 -5.96354167 1.06510417 -3.9453125 1.09765625 C-1.91814596 1.12649242 -1.91814596 1.12649242 0 0 Z " fill="#E9BE5A" transform="translate(153,208)"/>
<path d="M0 0 C0.99 0 1.98 0 3 0 C3 0.66 3 1.32 3 2 C5.475 2.99 5.475 2.99 8 4 C8 4.66 8 5.32 8 6 C5.69 5.34 3.38 4.68 1 4 C0.67 2.68 0.34 1.36 0 0 Z " fill="#F9B42A" transform="translate(96,199)"/>
<path d="M0 0 C0.99 0 1.98 0 3 0 C3 3 3 3 1.3125 4.75 C-1 6 -1 6 -3.75 5.6875 C-4.4925 5.460625 -5.235 5.23375 -6 5 C-6 4.34 -6 3.68 -6 3 C-3.525 3.495 -3.525 3.495 -1 4 C-0.67 2.68 -0.34 1.36 0 0 Z " fill="#F2A82C" transform="translate(101,165)"/>
<path d="M0 0 C0.33 0.66 0.66 1.32 1 2 C0.11083398 4.58666478 -0.54971573 5.73854462 -2.9375 7.125 C-3.618125 7.41375 -4.29875 7.7025 -5 8 C-5.99 8.66 -6.98 9.32 -8 10 C-6.34908222 5.70761377 -3.26245434 3.1206085 0 0 Z " fill="#DD807B" transform="translate(128,54)"/>
<path d="M0 0 C4.875 4.625 4.875 4.625 6 8 C5.01 8 4.02 8 3 8 C3 6.68 3 5.36 3 4 C2.34 4 1.68 4 1 4 C0.67 4.66 0.34 5.32 0 6 C0 4.02 0 2.04 0 0 Z " fill="#E1996C" transform="translate(180,107)"/>
<path d="M0 0 C0.33 0.99 0.66 1.98 1 3 C-0.8125 5 -0.8125 5 -3 7 C-3.99 7 -4.98 7 -6 7 C-4.60667426 3.63279613 -3.0210714 2.0140476 0 0 Z " fill="#F0B53E" transform="translate(173,194)"/>
<path d="M0 0 C0.99 0.33 1.98 0.66 3 1 C3.33 2.98 3.66 4.96 4 7 C3.01 7 2.02 7 1 7 C1 5.68 1 4.36 1 3 C0.34 2.67 -0.32 2.34 -1 2 C-0.67 1.34 -0.34 0.68 0 0 Z " fill="#DE9F66" transform="translate(73,122)"/>
<path d="M0 0 C0.33 0 0.66 0 1 0 C1 2.31 1 4.62 1 7 C-0.98 7.99 -0.98 7.99 -3 9 C-2.01 6.03 -1.02 3.06 0 0 Z " fill="#DE8467" transform="translate(103,86)"/>
<path d="M0 0 C2.1385485 2.1385485 2.42655063 3.13275314 3 6 C-0.65316671 4.75023244 -1.78065836 4.32901247 -4 1 C-2.125 0.375 -2.125 0.375 0 0 Z " fill="#EDBE57" transform="translate(95,198)"/>
<path d="M0 0 C1.65 0 3.3 0 5 0 C5.33 1.98 5.66 3.96 6 6 C3.97945196 4.35830472 1.97956942 2.69088222 0 1 C0 0.67 0 0.34 0 0 Z " fill="#EAB743" transform="translate(85,193)"/>
<path d="M0 0 C0.99 0.33 1.98 0.66 3 1 C2.67 3.64 2.34 6.28 2 9 C-0.29013653 5.5647952 -0.17842973 4.014669 0 0 Z " fill="#EFB879" transform="translate(94,147)"/>
</svg>
